<svg xmlns="http://www.w3.org/2000/svg" width="145" height="63" viewBox="0 0 145 63" fill="none">
<path fill-rule="evenodd" clip-rule="evenodd" d="M96.7481 12.6435C96.9342 12.4201 97.1234 12.1982 97.2634 12.0403C97.5181 11.7544 97.6387 11.6367 97.8144 11.4655C98.0244 11.254 98.1838 11.1259 98.4206 10.9591C98.5635 10.8608 98.7378 10.7521 98.8584 10.6776C99.2337 10.4513 99.2442 10.4572 99.4273 10.3693C99.6567 10.2636 100.039 10.1013 100.299 10.0149C100.528 9.93149 100.732 9.87042 100.967 9.80936C101.265 9.72894 101.713 9.64554 102.186 9.58746C102.454 9.55469 102.726 9.53235 102.994 9.52044C103.262 9.50852 103.524 9.50852 103.721 9.51299C104.285 9.52937 104.597 9.57256 105.014 9.6366C105.502 9.70958 106.079 9.85404 106.494 9.9851C107.023 10.1489 107.756 10.4557 108.292 10.758C108.609 10.9368 109.023 11.2019 109.31 11.4312C109.471 11.5548 109.702 11.7618 110.045 12.0642C110.409 12.438 110.783 13.0411 111.239 13.5058C111.319 13.4403 111.397 13.3703 111.485 13.2794C111.573 13.1886 111.671 13.0769 111.823 12.8952C112 12.6897 112.204 12.3978 112.471 12.1074C112.502 12.0761 112.536 12.0463 112.575 12.012C112.614 11.9793 112.66 11.942 112.809 11.8259C112.958 11.7082 113.209 11.5116 113.381 11.3806C113.708 11.1319 113.78 11.0902 113.948 10.977C114.271 10.7655 114.691 10.5153 115.052 10.35C115.183 10.2889 115.409 10.1936 115.64 10.1072C115.851 10.0283 115.831 10.0387 115.962 9.99552C116.198 9.91659 116.645 9.79745 117.01 9.71703C117.312 9.65001 117.655 9.5949 118.003 9.55618C118.137 9.54129 118.279 9.52788 118.492 9.5115C118.927 9.47725 119.59 9.45342 120.164 9.48321C120.458 9.49661 120.742 9.52044 120.967 9.54278C121.523 9.60086 121.902 9.6649 122.313 9.7483C123.131 9.91957 124.081 10.2025 124.947 10.6136C125.615 10.9383 126.166 11.248 126.792 11.7857C127.236 12.1595 127.662 12.6212 127.983 13.0114C128.117 13.1752 128.345 13.485 128.534 13.765C128.776 14.1298 128.799 14.176 128.935 14.4158C129.014 14.5573 129.123 14.7598 129.236 14.9921C129.347 15.2245 129.462 15.4866 129.586 15.8172C129.709 16.1478 129.842 16.544 129.961 16.9461C130.033 17.2112 130.094 17.4793 130.153 17.7861C130.213 18.0929 130.272 18.4384 130.326 19.046C130.38 19.6522 130.429 20.5204 130.458 21.2472C130.517 22.7752 130.509 23.8103 130.496 25.1462C130.485 25.8432 130.467 26.5864 130.441 27.3295C130.484 28.9529 130.518 30.5777 130.536 31.6753C130.554 32.7729 130.554 33.3448 130.551 33.8497C130.549 34.3546 130.546 34.7909 130.537 35.1305C130.53 35.47 130.517 35.7098 130.503 35.893C130.478 36.2281 130.452 36.4009 130.417 36.6213L124.236 36.5975C124.221 36.4768 124.209 36.3562 124.196 36.2147C124.184 36.0747 124.172 35.9139 124.163 35.5966C124.154 35.2794 124.148 34.8028 124.147 33.3984C124.145 31.994 124.148 29.6603 124.147 27.9982C124.145 26.3362 124.138 25.3443 124.13 24.5296C124.121 23.715 124.113 23.0805 124.095 22.5116C124.077 21.9442 124.051 21.4438 124.026 21.0759C123.964 20.2389 123.916 19.9381 123.804 19.3171C123.749 19.0967 123.715 18.9164 123.651 18.696C123.573 18.4443 123.493 18.1748 123.338 17.8159C123.307 17.7429 123.228 17.582 123.144 17.4182C122.937 17.0369 122.829 16.8955 122.611 16.6348C122.54 16.5499 122.336 16.337 122.169 16.197C122.041 16.0853 121.648 15.8083 121.429 15.713C121.317 15.6564 120.973 15.5179 120.704 15.4419C120.364 15.3421 119.782 15.2721 119.455 15.2617C119.073 15.2513 118.339 15.2691 117.68 15.4881C117.296 15.6087 117.064 15.7025 116.724 15.8887C116.246 16.1463 115.795 16.4606 115.287 17.0295C115.095 17.2499 114.824 17.6312 114.718 17.8561C114.666 17.9603 114.603 18.1003 114.538 18.2626C114.498 18.3624 114.456 18.4741 114.399 18.6499C114.344 18.8256 114.276 19.0654 114.238 19.1964C114.201 19.326 114.197 19.3454 114.191 19.3692C114.134 19.6 114.051 20.0736 114.009 20.5085C113.996 20.65 113.984 20.787 113.969 21.0417C113.954 21.2964 113.933 21.6702 113.917 22.111C113.899 22.5518 113.885 23.0612 113.885 24.0709C113.885 25.0807 113.899 26.5893 113.911 27.8582C113.921 29.1271 113.929 30.1562 113.932 30.883C113.933 31.6098 113.932 32.0372 113.927 32.4125C113.92 33.1795 113.911 33.7171 113.897 34.3367C113.883 35.0099 113.857 35.8364 113.826 36.6749L107.654 36.6823C107.611 36.2385 107.577 35.7932 107.544 35.275C107.511 34.7567 107.481 34.1654 107.474 32.9904C107.467 31.8153 107.48 30.0549 107.493 28.4405C107.507 26.8261 107.52 25.3547 107.52 24.3733C107.52 23.3918 107.507 22.8988 107.493 22.4669C107.48 22.035 107.467 21.6657 107.437 21.2755C107.407 20.8853 107.362 20.4728 107.315 20.1407C107.266 19.8085 107.213 19.5539 107.157 19.326C107.1 19.0981 107.041 18.8956 106.996 18.7526C106.871 18.3565 106.805 18.2135 106.667 17.8918C106.436 17.4152 106.047 16.9059 105.52 16.4874C105.212 16.2327 105.046 16.127 104.725 15.9453C104.284 15.707 103.988 15.5893 103.545 15.4613C103.087 15.3377 102.498 15.2528 102.008 15.2796C101.273 15.3123 100.157 15.5462 99.2307 16.4353C98.7691 16.8835 98.5546 17.1874 98.2836 17.6773C98.2285 17.7742 98.1197 17.9871 98.0214 18.209C97.9663 18.3297 97.8248 18.7109 97.7683 18.8867C97.6104 19.3766 97.5046 19.8205 97.4242 20.3492C97.3274 20.9032 97.2693 21.8251 97.2693 22.5384L97.3259 36.7374L91.0024 36.7613L90.907 10.4572L96.6974 10.4408L96.7481 12.6435Z" fill="black"/>
<path fill-rule="evenodd" clip-rule="evenodd" d="M58.0039 22.805C57.9428 22.9897 57.7954 23.2041 57.5198 23.4126C57.4201 23.4901 57.1386 23.642 56.9763 23.6956C55.9814 24.0248 55.0178 23.9622 53.877 23.1729C53.6774 23.021 53.457 22.811 53.3066 22.6323C53.1264 22.4223 52.9328 22.1333 52.8211 21.9189C52.3683 21.0878 52.1807 20.2002 52.2254 19.3647C52.2507 18.9418 52.3073 18.6007 52.3803 18.3237C52.4473 18.072 52.5128 17.8561 52.5992 17.6416C52.8449 17.028 53.1473 16.5127 53.536 16.0376C53.6923 15.8455 53.9157 15.6027 54.0766 15.4672C55.9457 13.8588 57.706 13.5892 59.7091 13.8201C60.0234 13.8647 60.208 13.9064 60.4612 13.969C60.9333 14.0807 61.5678 14.2773 61.9952 14.5036C62.5254 14.7717 63.1747 15.1143 63.9253 15.85C64.1085 16.0376 64.2947 16.2372 64.4555 16.4278C64.6938 16.7123 64.9842 17.0891 65.2285 17.4733C65.4534 17.8278 65.6544 18.1792 65.7691 18.4369C65.9061 18.7258 66.1742 19.4392 66.2859 19.9247C66.3499 20.1943 66.3857 20.3849 66.4289 20.6649C66.4795 20.9925 66.5301 21.4542 66.5286 21.7804C66.5301 22.1423 66.5152 22.7574 66.4333 23.301C66.3618 23.7731 66.2889 24.1201 66.207 24.4328C66.1504 24.6622 66.0327 25.0345 65.9329 25.3145C65.717 25.9087 65.5531 26.2781 65.3134 26.7427C64.9589 27.4129 64.4049 28.2797 63.7809 28.9305C63.3415 29.3952 63.063 29.626 62.6252 29.9596C62.1307 30.3275 61.8373 30.5166 61.3727 30.7787C60.3063 31.3596 59.4842 31.6619 58.4268 31.9121C58.2451 31.9538 58.0709 31.9881 57.9011 32.0193C57.7313 32.0506 57.5645 32.0774 57.3009 32.1087C56.7484 32.1787 55.9099 32.2338 55.1876 32.1861C54.8138 32.1638 54.4415 32.1236 54.1689 32.0863C53.6298 32.0119 53.3855 31.9464 52.9983 31.8555C51.9945 31.6157 50.885 31.166 49.8916 30.597C49.1976 30.2039 48.4053 29.626 47.7098 28.9588C47.1617 28.4376 46.6747 27.8612 46.3188 27.3697C45.6218 26.4195 45.1229 25.4098 44.7833 24.5371C44.277 23.2116 44.0134 21.9129 43.9032 20.5651C43.7646 18.8167 43.9568 17.1844 44.408 15.6296C44.5689 15.0889 44.7938 14.4768 44.9993 14.0092C45.2346 13.4611 45.5205 12.9041 45.8378 12.3888C46.0686 12.015 46.3784 11.5533 46.6837 11.1557C47.0664 10.6583 47.54 10.1028 48.1223 9.54128C49.768 7.98198 51.5135 6.99309 53.2038 6.3646C56.948 4.99593 60.9795 5.03019 64.8621 6.55672C65.6634 6.8799 66.3157 7.20606 67.0931 7.67668C68.0403 8.25602 68.8371 8.85323 69.7679 9.73787C70.867 10.7863 71.7889 12.0254 72.4427 13.1126C73.2097 14.3949 73.8247 15.8127 74.2328 17.3035C74.3832 17.8531 74.4815 18.3133 74.5813 18.8673C74.6334 19.1652 74.6826 19.4824 74.7168 19.7281C74.83 20.5443 74.8404 20.8615 74.8568 21.4453C74.8792 22.2182 74.8628 23.1088 74.7704 24.0456C74.7436 24.3181 74.7139 24.5594 74.69 24.7426C74.623 25.2236 74.6066 25.2862 74.5485 25.6094C74.483 25.9683 74.3668 26.5387 74.2432 27.0078C73.929 28.2603 73.2975 29.8181 72.5961 31.0736C72.054 32.061 71.2512 33.2301 70.3844 34.1997C69.7426 34.9339 68.8415 35.7888 68.0984 36.3711C67.1273 37.141 66.3529 37.6355 65.364 38.1791C64.043 38.8939 62.7607 39.4063 61.3652 39.8069C61.0942 39.8858 60.8291 39.9573 60.4136 40.0526C59.5393 40.2552 58.2392 40.483 57.1133 40.5471C56.528 40.5843 55.9397 40.5947 55.5063 40.5932C54.6634 40.5888 54.2508 40.5456 53.6387 40.492C51.722 40.2999 49.8127 39.8382 47.89 39.028C46.4767 38.4397 45.0678 37.6578 43.6664 36.5974C42.049 35.3941 40.3303 33.5652 39.2967 32.0268C38.838 31.3685 38.36 30.5985 37.9817 29.8896C37.45 28.9082 36.893 27.6304 36.5311 26.5357C36.2228 25.6228 35.9786 24.7054 35.7909 23.7075C35.6733 23.0761 35.5914 22.4699 35.5273 21.837C35.438 20.9374 35.4126 20.2106 35.4201 19.5211C35.4231 19.262 35.4305 18.973 35.4469 18.6677C35.4633 18.3624 35.4871 18.0392 35.5109 17.7682C35.5348 17.4956 35.5601 17.2752 35.5869 17.0623C35.6718 16.4055 35.8311 15.3823 36.0754 14.4024C36.2288 13.7843 36.3569 13.3479 36.5103 12.8729C36.5892 12.6271 36.683 12.3516 36.8036 12.021C36.9258 11.6903 37.0747 11.3046 37.1775 11.0455C37.3949 10.5049 37.4321 10.4319 37.5662 10.143C37.73 9.80638 37.9713 9.31342 38.1827 8.92918C38.4374 8.45856 38.9185 7.64689 39.3682 7.03181C40.1739 5.8776 41.6677 4.28702 42.9768 3.33387C43.4117 3.00622 43.8004 2.73666 44.1429 2.52369C44.5361 2.28093 45.2465 1.87435 45.8735 1.58543C46.8252 1.15055 47.5743 0.872053 48.4798 0.605468C48.6779 0.553342 48.8759 0.502706 49.0189 0.466963C49.4508 0.364201 49.5655 0.34484 49.8395 0.297182C50.1284 0.245057 50.8478 0.151231 51.369 0.102084C51.7726 0.0633617 52.2701 0.029108 52.6722 0.0157043C52.7988 0.0112364 52.9298 0.00676822 53.0743 0.00378961C53.2187 0.000811009 53.3781 -0.00365658 53.7028 0.00527924C54.0274 0.0142151 54.5174 0.0350649 54.8838 0.064851C55.2502 0.0946371 55.4959 0.134849 55.7133 0.178038C55.9323 0.221228 56.1244 0.267396 56.2599 0.30314C56.5578 0.385051 56.6709 0.435687 56.8497 0.525046C56.251 0.602489 55.7014 0.691847 55.1206 0.809502C54.8897 0.85716 54.6351 0.913754 54.4236 0.962901C53.7489 1.12077 53.463 1.20566 52.9298 1.3531C52.2492 1.54969 51.5269 1.79989 50.8969 2.04711C49.9646 2.41795 49.3361 2.7039 48.4291 3.20877C47.5236 3.73003 46.8356 4.18724 45.9718 4.89764C45.3448 5.41294 44.6374 6.10248 44.1072 6.6982C43.7617 7.08096 43.367 7.54711 43.1034 7.88667C42.9083 8.13538 42.7087 8.40346 42.5166 8.67153C42.2992 8.97386 41.9566 9.48022 41.632 9.9985C40.9305 11.1244 40.448 12.1491 40.0771 13.1454C39.9714 13.4284 39.8701 13.7262 39.7971 13.9511C39.6482 14.4158 39.6006 14.6198 39.5186 14.946C39.4382 15.2647 39.3146 15.8842 39.2193 16.468C39.0212 17.7056 38.9646 18.5516 38.9676 19.5837C38.9706 20.1675 39.0019 20.7632 39.0659 21.3663C39.1284 21.971 39.2238 22.5816 39.3072 23.0329C39.4635 23.8803 39.5946 24.3107 39.7674 24.9168C40.092 26.0025 40.4137 26.8068 40.9141 27.8255C41.5649 29.0884 42.2828 30.2173 43.3849 31.4742C44.1221 32.3097 45.0246 33.1557 45.9331 33.8348C46.6524 34.3709 47.1692 34.6867 47.8915 35.0947C48.87 35.619 49.7546 35.9987 50.7525 36.3115C54.7244 37.5163 58.8126 37.3227 62.8486 35.4715C63.41 35.2079 64.0281 34.8728 64.5434 34.5467C65.6246 33.8765 66.7729 32.9725 67.8288 31.781C68.8475 30.6298 69.4745 29.6335 70.0553 28.4167C70.3755 27.7197 70.5885 27.1478 70.8104 26.4196C71.7367 23.158 71.6072 19.6745 70.1134 16.3548C69.47 14.9862 68.7611 13.8483 67.4878 12.5288C66.8503 11.878 66.0148 11.2078 65.364 10.7938C64.3275 10.1042 63.0109 9.54128 62.0027 9.27619C61.4471 9.12428 60.9378 9.01705 60.4359 8.94854C60.2557 8.92322 60.068 8.90088 59.8 8.88003C59.2325 8.83387 58.4388 8.81897 57.7298 8.88599C57.3575 8.91876 56.9822 8.96939 56.6933 9.01556C56.1571 9.10343 55.8488 9.18534 55.4557 9.28959C54.7512 9.47724 53.9902 9.76766 53.32 10.1117C52.693 10.4244 51.9916 10.8712 51.4212 11.3195C50.9163 11.7097 50.2148 12.3784 49.7293 12.9741C49.3763 13.3956 49.013 13.9258 48.724 14.4262C48.2877 15.1753 47.896 16.1404 47.6815 16.9446C47.3568 18.0988 47.2794 19.4958 47.3985 20.6023C47.4447 21.0715 47.549 21.6597 47.7024 22.2421C47.8543 22.8274 48.1551 23.6569 48.5185 24.2839C48.7583 24.7188 49.1261 25.2639 49.4791 25.6719C50.0406 26.351 50.7167 26.917 51.2529 27.2893C52.5754 28.1754 53.7355 28.5373 55.0714 28.6967C56.4327 28.8233 57.8192 28.7071 59.307 27.9893C59.5587 27.8731 59.7568 27.7644 60.0666 27.5723C60.4508 27.334 60.7665 27.0972 61.1776 26.701C61.5514 26.3376 61.9327 25.8908 62.2156 25.4083C62.4063 25.0762 62.4971 24.8945 62.652 24.5222C62.7369 24.3167 62.7741 24.205 62.8277 24.0262C62.9454 23.6346 63.0749 22.9956 63.0839 22.3776C63.0913 21.7476 63.0273 21.2264 62.9141 20.7617C62.7935 20.2777 62.6028 19.743 62.3288 19.2456C62.1292 18.8896 61.882 18.5575 61.6229 18.2716C61.3459 17.9722 61.0316 17.7071 60.6399 17.4659C60.1544 17.1814 59.733 17.0384 59.2087 16.9535C59.0806 16.9342 58.9972 16.9252 58.8692 16.9193C58.6473 16.9104 58.4894 16.9118 58.3658 16.9223C57.8132 16.964 57.4811 17.0459 56.9316 17.2454C56.7886 17.302 56.6739 17.3527 56.531 17.4242C56.3493 17.518 56.175 17.6133 56.0827 17.6788C55.7893 17.859 55.2561 18.3788 55.0551 18.7511C54.4891 19.7519 54.4325 20.7676 54.9299 21.834C55.0699 22.0887 55.0938 22.1259 55.2636 22.3329C55.3693 22.458 55.5555 22.6382 55.7476 22.7618C56.2584 23.1059 56.9599 23.1565 57.4975 22.9912C57.6613 22.9525 57.8371 22.8854 58.0039 22.805Z" fill="black"/>
<path fill-rule="evenodd" clip-rule="evenodd" d="M6.45613 28.7533C6.51868 29.1405 6.65271 29.702 6.92228 30.2664C6.96398 30.3468 7.12929 30.6551 7.24248 30.7981C7.43162 31.0409 7.47779 31.1183 7.76373 31.37C7.90969 31.504 8.16585 31.6783 8.29542 31.7483C9.3841 32.3008 10.4936 32.3172 11.7 31.5174C11.8176 31.4251 12.038 31.2523 12.2614 30.956C12.3642 30.816 12.3806 30.7758 12.4595 30.6417C12.7261 30.1666 12.7589 29.5664 12.7142 29.1688C12.6591 28.7935 12.5682 28.4748 12.3046 28.1218C12.2987 28.1129 12.1348 27.9193 12.0991 27.885C11.8772 27.6631 11.691 27.5365 11.4319 27.3608C11.2785 27.261 11.1742 27.2029 11.0521 27.1389C10.9106 27.0614 10.6262 26.9363 10.3253 26.8127C9.9411 26.6638 9.55537 26.5178 8.95964 26.3049C8.36541 26.0919 7.56119 25.8104 7.02355 25.6168C6.18954 25.3145 5.93636 25.1968 5.47021 24.9913C5.14256 24.8394 4.87002 24.6979 4.57663 24.5266C4.29962 24.3643 3.98835 24.1722 3.72475 23.9786C3.47156 23.7924 3.27795 23.639 3.13945 23.5154C3.03222 23.4216 2.72691 23.1356 2.57798 22.9673C2.37246 22.7291 2.16991 22.4714 2.05822 22.3076C1.88993 22.0693 1.67398 21.6955 1.55483 21.4155C1.4759 21.2338 1.29569 20.8049 1.2257 20.5472C1.09464 20.1302 0.984429 19.4943 0.948686 19.1264C0.935282 19.0088 0.909964 18.5888 0.904007 18.2075C0.899539 17.1442 1.03358 16.404 1.28676 15.564C1.58462 14.6496 2.06715 13.6905 2.87138 12.7865C3.33455 12.2682 3.79772 11.8988 4.25196 11.5652C4.72407 11.2391 5.20511 10.9665 5.71892 10.7402C5.98402 10.624 6.31911 10.4915 6.64974 10.3827C6.88951 10.3023 7.22907 10.21 7.61778 10.1236C8.50988 9.9285 9.51367 9.85552 10.4192 9.93148C10.6545 9.95084 10.8942 9.97913 11.067 10.0015C11.5391 10.067 11.767 10.1221 12.1289 10.2174C12.5638 10.3276 13.0999 10.5093 13.6629 10.7804C14.1454 11.0187 14.4686 11.1914 14.9898 11.5816C15.4396 11.9182 15.7434 12.1967 16.1187 12.6063C16.226 12.718 16.497 13.0501 16.6489 13.2586C16.911 13.6115 17.2893 14.2564 17.4799 14.7032C17.5633 14.8968 17.7019 15.2096 17.7808 15.4568C17.8687 15.7293 18.0325 16.2625 18.1189 16.7227C18.1978 17.1203 18.2529 17.5165 18.2842 17.9112L12.1125 17.9439C12.0246 17.5225 11.7968 16.9461 11.4974 16.5604C11.3366 16.3385 11.0372 16.057 10.8153 15.9438C10.0558 15.5134 9.26942 15.5089 8.40265 15.9602C8.0616 16.1672 7.8933 16.3206 7.66246 16.5916C7.16206 17.305 6.96994 18.1748 7.53885 18.9894C7.61332 19.0937 7.77267 19.2426 7.92756 19.3707C8.03181 19.4571 8.22393 19.5911 8.37435 19.676C8.52626 19.7653 8.8122 19.889 9.10262 19.9962C10.1392 20.3268 11.1727 20.6664 11.9204 20.9166C12.668 21.1668 13.1282 21.3291 13.5065 21.4691C14.2705 21.7536 14.7977 21.9755 15.4753 22.3806C15.6645 22.4923 15.8506 22.6203 16.01 22.7231C16.2081 22.8497 16.7532 23.2712 17.0108 23.5333C17.2625 23.7805 17.6021 24.1647 17.757 24.3807C18.0191 24.7515 18.1591 24.9898 18.3229 25.3249C18.4346 25.5558 18.5537 25.8536 18.6505 26.1619C18.9856 27.188 19.1256 28.585 18.9841 29.7362C18.9588 29.9745 18.9216 30.2262 18.8948 30.39C18.8441 30.7072 18.8263 30.7713 18.789 30.95C18.6744 31.4683 18.5656 31.851 18.3333 32.4408C18.2231 32.7119 18.174 32.8072 18.0772 33.0008C17.891 33.3895 17.5529 33.942 17.261 34.3352C16.6653 35.1439 15.7002 35.9898 14.9228 36.453C14.6101 36.6451 14.3599 36.7821 13.998 36.9564C13.7418 37.0755 13.639 37.1157 13.4112 37.2051C13.0582 37.3436 12.5563 37.5134 12.1378 37.6087C11.4736 37.771 10.507 37.8902 9.76685 37.9036C9.3424 37.914 8.65136 37.8812 8.145 37.7993C7.75331 37.7427 7.19184 37.6355 6.74207 37.5134C6.45017 37.4374 5.96913 37.2691 5.6251 37.1306C5.52085 37.0874 5.40766 37.0398 5.28256 36.9832C4.9147 36.8134 4.20281 36.4545 3.62943 36.0285C3.44327 35.893 3.26008 35.7471 3.11562 35.6249C2.74776 35.3137 2.45884 35.0143 2.19523 34.7194C1.69929 34.1654 1.33144 33.5861 1.00379 32.9516C0.783373 32.5168 0.55551 31.9776 0.412537 31.4757C0.21446 30.7698 0.0938261 30.1339 0.0402112 29.5039C0.019361 29.2716 0.00595721 29.0258 0 28.7816L6.45613 28.7533Z" fill="black"/>
<path fill-rule="evenodd" clip-rule="evenodd" d="M22.7104 10.7074L22.6791 1.93095L28.9461 1.89967C28.9386 3.19686 28.9342 4.49404 28.9327 5.49038C28.9312 6.48673 28.9372 7.18521 28.9416 7.80625C28.9461 8.4258 28.952 8.96939 28.9595 9.3298C28.9654 9.69022 28.9714 9.86893 28.9789 10.0164C28.9908 10.2919 29.0057 10.4766 29.0265 10.6821L32.793 10.6657L32.8093 16.264L29.0816 16.2953C28.9967 16.5321 29.025 16.6214 29.0027 16.8999C28.9967 17.1531 28.9923 17.4048 28.9893 17.7101C28.9863 18.0139 28.9833 18.3714 28.9878 19.0579C28.9908 19.7445 28.9997 20.7587 29.022 22.7335C29.0444 24.7083 29.0801 27.6423 29.0965 29.6111C29.1129 31.5815 29.1099 32.5882 29.1025 33.455C29.0965 34.3218 29.0861 35.0471 29.0801 35.4611C29.0727 35.8736 29.0697 35.9734 29.0652 36.0747C29.0488 36.3398 29.0578 36.5409 28.9982 36.8864C28.9937 36.9117 28.9803 36.9459 28.964 36.9847H22.8072L22.7282 16.3027L19.6469 16.2789L19.6871 10.7208L22.7104 10.7074Z" fill="black"/>
<path fill-rule="evenodd" clip-rule="evenodd" d="M83.3935 12.7463C83.5201 12.6852 83.6005 12.6182 83.7286 12.4841C83.8239 12.3754 83.9148 12.2637 84.0563 12.0776C84.1977 11.8914 84.3899 11.6308 84.5269 11.455C84.7398 11.1825 84.8203 11.1021 84.9484 10.974C85.139 10.7849 85.2983 10.6895 85.4964 10.551C85.6662 10.4364 85.699 10.423 85.8613 10.3306C86.177 10.1564 86.5032 10.0372 86.801 9.94637C86.8934 9.91808 86.9947 9.88829 87.1451 9.85255C87.297 9.8168 87.498 9.77361 87.7333 9.7334C88.2457 9.64404 88.9397 9.59192 89.6352 9.58447L89.6665 15.701C89.5399 15.707 89.5131 15.7085 89.3909 15.7174C89.2703 15.7264 89.105 15.7383 89.0022 15.7502C88.9248 15.7591 88.4437 15.8187 88.2174 15.8723C87.7795 15.9691 87.5248 16.0421 87.0617 16.2208C86.5762 16.4204 86.0504 16.6989 85.5396 17.174C85.4517 17.2574 85.1703 17.5254 85.0794 17.6773C84.5284 18.4071 84.3809 18.9328 84.2067 19.603C84.0875 20.1064 84.0458 20.6381 84.0146 21.1385C84.0012 21.3619 83.9877 21.6151 83.9788 22.0008C83.9699 22.3865 83.9624 22.9063 83.9639 23.4246L84.0116 36.7881L77.688 36.8119L77.5927 10.5078L83.3831 10.4915L83.3935 12.7463Z" fill="black"/>
<path fill-rule="evenodd" clip-rule="evenodd" d="M96.7407 47.0672C96.4875 47.1447 96.1464 47.2579 95.7845 47.4381C95.5284 47.5647 95.1382 47.8104 94.9029 48.0055C94.7227 48.1514 94.4367 48.4121 94.2297 48.6623C94.0838 48.835 93.9482 49.0197 93.8231 49.2237C93.3525 49.9997 93.1246 50.9141 93.1574 51.8136C93.2051 52.606 93.3108 53.3595 93.9095 54.3425C94.0614 54.5763 94.1567 54.7088 94.3444 54.9308C94.9222 55.5831 95.4643 55.9673 96.1449 56.2443C96.4086 56.356 96.7019 56.4454 96.9849 56.5035C97.6596 56.6554 98.8763 56.5988 99.7193 56.1758C100.032 56.0313 100.19 55.9256 100.437 55.7588C100.668 55.5935 100.863 55.4252 101.015 55.2778C101.438 54.8697 101.73 54.4467 101.929 54.0804C102.232 53.5263 102.334 53.163 102.443 52.6804C102.583 51.9894 102.541 51.4771 102.48 51.0228C102.406 50.4331 102.142 49.7107 101.746 49.0867C101.703 49.0152 101.606 48.8782 101.503 48.7353C101.405 48.6161 101.323 48.5163 101.232 48.4151C101.04 48.1902 100.54 47.7419 100.175 47.5304C99.9769 47.4098 99.7535 47.2936 99.548 47.2117C99.2844 47.0881 98.5874 46.9019 98.1347 46.9049C97.9291 46.893 97.6894 46.9034 97.524 46.9198C97.3885 46.9317 97.1294 46.9719 96.8479 47.0404C96.8151 47.0449 96.7853 47.0523 96.7407 47.0672ZM102.458 55.6307C102.235 55.8884 101.999 56.1445 101.766 56.3828C101.55 56.6018 101.359 56.7834 101.243 56.8758C100.757 57.2719 100.351 57.4581 99.7044 57.6666C99.6657 57.68 99.4631 57.7321 99.2829 57.7753C99.1191 57.814 99.0416 57.826 98.9389 57.8438C97.6879 58.0583 96.343 57.896 95.1486 57.3345C94.669 57.1007 94.3325 56.8981 93.8723 56.5332C93.628 56.3411 93.4434 56.1505 93.2229 55.9256C93.1455 55.8497 92.8819 55.5354 92.7464 55.3358C92.2266 54.6001 91.9064 53.778 91.756 52.9619C91.5117 51.4696 91.6755 49.9892 92.52 48.5506C92.8193 48.0457 93.2095 47.5513 93.7531 47.0717C95.1963 45.8341 96.7779 45.4364 98.2315 45.5169C98.5278 45.5333 98.9031 45.5854 99.1757 45.6569C99.2784 45.6822 99.4929 45.7462 99.691 45.8118C100.151 45.9696 100.325 46.059 100.662 46.2407C100.99 46.4387 101.113 46.5326 101.375 46.7649C101.502 46.8796 101.663 47.033 101.786 47.1536C102.072 47.4366 102.245 47.6227 102.427 47.8253V45.779L103.956 45.8356C103.977 47.8968 103.991 49.9595 103.997 51.3937C104.001 52.8279 103.998 53.6336 103.992 54.3067C103.986 54.9799 103.977 55.5205 103.958 56.0611C103.937 56.6018 103.906 57.1409 103.871 57.5072C103.806 58.167 103.737 58.3621 103.641 58.721C103.566 58.9385 103.48 59.1514 103.377 59.3689C103.325 59.4791 103.268 59.5908 103.228 59.6652C103.104 59.8946 103.098 59.8872 103.031 59.9914C102.956 60.1031 102.823 60.2952 102.725 60.4084C102.479 60.7227 102.09 61.0533 101.727 61.2916C101.579 61.3943 101.064 61.6773 100.841 61.7592C100.626 61.8471 100.337 61.9513 100.13 62.0094C99.9308 62.0645 99.8339 62.0913 99.5986 62.139C99.3082 62.1971 98.8451 62.2656 98.4638 62.282C97.7832 62.3088 97.4302 62.2685 96.8524 62.1837C96.4115 62.1032 96.279 62.066 95.9305 61.9618C95.3824 61.7696 95.1084 61.6505 94.5931 61.3497C94.5186 61.3065 94.185 61.0875 94.0272 60.9505C93.8112 60.7882 93.4865 60.462 93.3019 60.2401C93.2274 60.1552 93.0666 59.9452 92.934 59.7531C92.6734 59.3689 92.5974 59.1723 92.4589 58.8774C92.3353 58.5989 92.234 58.3025 92.1566 58.0032C92.4604 57.9987 92.7657 57.9957 92.9698 57.9957C93.4374 58.024 93.4984 57.9257 93.8127 58.1149C93.8842 58.1968 94.048 58.581 94.1716 58.7836C94.2833 58.94 94.3801 59.077 94.4933 59.2125C94.541 59.2691 94.6884 59.4344 94.8358 59.5908C95.0771 59.8455 95.3005 60.0242 95.4941 60.1686C96.9373 61.0592 98.3834 61.1694 99.9933 60.6229C100.104 60.5797 100.366 60.465 100.507 60.3846C100.681 60.2848 100.988 60.1269 101.331 59.7635C101.575 59.4999 101.73 59.2959 101.889 58.9653C102.142 58.4589 102.25 57.9957 102.343 57.4655C102.376 57.2675 102.406 57.0471 102.428 56.7358C102.445 56.429 102.458 56.0299 102.458 55.6307Z" fill="black"/>
<path fill-rule="evenodd" clip-rule="evenodd" d="M65.4191 47.1983C65.1287 47.2772 64.4362 47.5423 64.0251 47.8104C63.9179 47.8789 63.7824 47.9623 63.6737 48.0487C63.6126 48.0949 63.4994 48.1842 63.3818 48.2795C63.2179 48.4314 63.0884 48.558 63.0154 48.6399C62.2916 49.474 62.0473 50.1739 61.9178 51.0079C61.8761 51.2879 61.8508 51.8136 61.888 52.1592C61.9103 52.3647 61.9863 52.9038 62.1471 53.3849C62.3631 54.0431 62.646 54.5287 63.0333 55.0291C63.1554 55.1839 63.6081 55.6829 64.0475 55.9748C65.1183 56.7075 66.2859 56.849 67.4729 56.5869C67.6709 56.5452 68.1594 56.3933 68.4365 56.2622C68.9949 55.9897 69.406 55.7558 69.9868 55.1422C70.2534 54.8444 70.4351 54.5972 70.6123 54.2918C70.7642 54.0253 70.8908 53.7453 70.9906 53.4489C71.214 52.8011 71.287 52.0281 71.2036 51.2879C71.1887 51.1822 71.1172 50.6579 71.0502 50.4643C71.0189 50.3586 70.94 50.0935 70.8595 49.9282C70.7836 49.7301 70.3398 48.9304 69.96 48.5491C69.0143 47.523 67.9837 47.1477 67.0767 47.0285C66.5465 46.9853 66.1295 47.0062 65.5189 47.1685C65.4951 47.1775 65.4727 47.1834 65.4191 47.1983ZM65.5666 45.7313C66.0342 45.642 66.3827 45.6196 66.8444 45.6375C67.7484 45.6777 68.6643 45.922 69.5192 46.4045C69.7604 46.543 70.2191 46.8424 70.6034 47.1745C70.867 47.4113 71.1202 47.6823 71.29 47.8819C72.3295 49.1314 72.7182 50.4256 72.7256 51.693C72.7316 52.3438 72.6497 52.9664 72.4844 53.5517C72.3474 54.0536 72.115 54.5689 71.8931 54.9546C71.8127 55.1005 71.6042 55.4088 71.4434 55.6248C71.1887 55.9986 70.4813 56.6807 70.024 56.9786C68.4662 58.033 66.8176 58.2564 65.1645 57.9019C64.463 57.7262 64.0624 57.5594 63.5083 57.2556C63.2358 57.1081 62.6743 56.7283 62.3229 56.3903C62.1948 56.2682 62.0324 56.1014 61.9118 55.9643C61.7703 55.8065 61.5589 55.5429 61.395 55.2971C61.2923 55.1452 61.1567 54.9174 61.0167 54.6493C60.1038 52.8249 60.1038 50.7131 61.0867 48.8827C61.3161 48.4553 61.7182 47.8878 62.2603 47.377C62.7428 46.9243 63.2105 46.6309 63.6022 46.4164C63.9507 46.2168 64.5911 45.9622 64.956 45.8713C65.1257 45.8237 65.3402 45.7745 65.5666 45.7313Z" fill="black"/>
<path fill-rule="evenodd" clip-rule="evenodd" d="M83.0435 47.1492C82.6876 47.2534 82.0948 47.4917 81.6823 47.7627C81.3993 47.9415 80.9362 48.2974 80.613 48.6787C79.8639 49.5365 79.5481 50.5254 79.5109 51.4413C79.4975 52.0847 79.5437 52.7608 79.8534 53.5576C79.9592 53.8212 80.0441 54.0014 80.2198 54.3023C80.3747 54.5569 80.5877 54.8667 80.8557 55.1527C81.0002 55.3075 81.2266 55.5175 81.4187 55.6739C81.4902 55.732 81.5646 55.7886 81.6659 55.8556C81.7657 55.9226 81.8908 56.0001 81.9653 56.0462C82.1574 56.1609 82.1097 56.1296 82.211 56.1833C82.3525 56.2592 82.6697 56.3903 82.8589 56.4439C83.0822 56.5154 83.3265 56.5705 83.5678 56.6032C84.0265 56.6554 84.3214 56.6643 84.7637 56.5958C84.8426 56.5839 85.1509 56.5318 85.3043 56.4841C85.7749 56.3456 86.2545 56.1684 86.7444 55.8273C87.1897 55.522 87.4995 55.2718 87.924 54.7223C89.0216 53.1823 89.1467 51.6424 88.5256 49.9341C88.4125 49.6527 88.344 49.5216 88.1757 49.2342C88.1042 49.115 87.9001 48.8082 87.7408 48.6236C86.9381 47.6853 86.0966 47.2594 85.2551 47.0553C84.9692 46.9868 84.5805 46.9496 84.369 46.9526C84.2245 46.9496 84.0131 46.9526 83.885 46.9719C83.8046 46.9823 83.6363 47.0062 83.5737 47.0211C83.2267 47.0851 83.2803 47.0777 83.0435 47.1492ZM83.1567 45.6777C83.9997 45.5154 85.0437 45.572 85.8389 45.7998C86.1979 45.8937 86.7281 46.0977 87.151 46.3375C87.6053 46.5966 87.9061 46.8111 88.2233 47.0836C88.3648 47.2057 88.5212 47.3562 88.6582 47.4976C88.761 47.6004 88.9203 47.7866 89.0648 47.9698C89.3299 48.3183 89.4445 48.5044 89.6054 48.7799C90.6136 50.6565 90.6926 52.6745 89.659 54.694C89.3924 55.175 89.172 55.4744 88.8801 55.8214C88.5242 56.2264 88.1727 56.5422 87.8421 56.7835C87.4102 57.1066 86.6983 57.5058 86.1011 57.6845C84.6996 58.1596 83.1046 58.0821 81.721 57.473C80.9868 57.1468 80.1945 56.6509 79.4394 55.7603C79.3128 55.6099 79.2086 55.4744 79.1013 55.3239C78.7752 54.8652 78.4222 54.1816 78.2495 53.5666C77.7669 51.7645 77.9144 49.8597 79.2533 48.0278C79.4424 47.7791 79.5735 47.6332 79.8207 47.383C80.1364 47.0747 80.3241 46.9302 80.6338 46.7083C80.8677 46.546 81.2757 46.3002 81.5691 46.1766C81.8983 46.0232 82.2378 45.8996 82.5848 45.8043C82.7621 45.7567 82.9408 45.715 83.1567 45.6777Z" fill="black"/>
<path fill-rule="evenodd" clip-rule="evenodd" d="M9.09219 51.2194L18.2186 51.2269C18.2067 50.3616 17.958 49.6169 17.0198 48.6399C16.9185 48.5387 16.6727 48.3138 16.5134 48.2006C16.0219 47.8312 15.4887 47.5647 14.9779 47.4008C14.8215 47.3532 14.3301 47.2236 14.0769 47.2132C13.9846 47.1953 13.8043 47.1834 13.6092 47.1864C13.5869 47.1864 13.2295 47.2042 13.0657 47.2296C12.4714 47.3011 11.6925 47.6064 11.2413 47.8953C11.0998 47.9817 10.8853 48.1291 10.7453 48.2497C10.6187 48.354 10.4787 48.4731 10.4147 48.5372C10.1973 48.7397 9.91727 49.0852 9.81302 49.2401C9.54643 49.6244 9.3275 50.0726 9.21134 50.512C9.1473 50.7503 9.10709 50.9871 9.09219 51.2194ZM19.4845 54.0938C19.4399 54.2308 19.4384 54.2397 19.3892 54.3663C19.3401 54.4959 19.2418 54.7476 19.1212 54.9888C18.9767 55.2778 18.9112 55.3954 18.7861 55.589C18.5508 55.9628 18.1382 56.4796 17.745 56.8088C17.4725 57.056 16.9944 57.3821 16.6474 57.5534C15.2773 58.2325 14.0888 58.3279 12.6516 58.1119C12.391 58.0672 12.1393 58.0077 11.898 57.9347C11.6568 57.8617 11.423 57.7753 11.2681 57.7143C10.9776 57.6011 10.8957 57.5564 10.726 57.4715C10.4728 57.3434 10.0424 57.0858 9.77727 56.8817C9.56579 56.7224 9.25006 56.4692 8.89858 56.082C8.17032 55.2718 7.76373 54.3484 7.588 53.4861C7.41375 52.6179 7.43162 51.7734 7.59395 50.9394C7.63714 50.7384 7.67289 50.5835 7.69821 50.4867C7.81735 49.9892 8.06011 49.3429 8.37286 48.8216C8.71093 48.2438 9.17113 47.66 9.82493 47.1432C10.2509 46.8111 10.7423 46.5356 11.0893 46.3881C11.4542 46.2273 11.9412 46.059 12.4238 45.9666C13.298 45.7924 14.5788 45.7656 15.7419 46.19C16.3555 46.4075 16.7055 46.5787 17.3087 47.0092C17.8061 47.3696 18.3214 47.8923 18.6952 48.4553C18.9827 48.8931 19.1524 49.2491 19.3341 49.6824C19.4637 50.0339 19.5397 50.2707 19.6499 50.7413C19.7586 51.2552 19.8196 51.7973 19.836 52.2187C19.8405 52.323 19.842 52.4466 19.842 52.5717L9.0907 52.6506C9.05347 53.2359 9.21134 53.8272 9.61643 54.5063C9.72068 54.682 9.81897 54.825 9.9128 54.9427C10.0528 55.1229 10.2747 55.3761 10.437 55.522C10.7081 55.7752 10.997 56.0016 11.4334 56.2562C11.5212 56.3098 11.9085 56.5079 12.0768 56.5601C12.3895 56.6762 13.1178 56.8817 13.6629 56.8609C14.0307 56.8579 14.196 56.8415 14.5877 56.7715C14.8171 56.7298 14.9869 56.6703 15.2028 56.6018C15.2654 56.5794 15.3339 56.5541 15.4262 56.5154C15.5856 56.4469 15.7643 56.3679 15.8506 56.3233C16.0949 56.2056 16.3481 56.0522 16.5164 55.9226C16.6861 55.8005 17.0704 55.4431 17.2119 55.2465C17.3265 55.1065 17.4561 54.9129 17.5291 54.7863C17.617 54.6582 17.6914 54.3976 17.8865 54.1504C18.1337 54.0342 18.1591 54.0774 18.3631 54.0625C18.6818 54.0595 19.1584 54.0819 19.4845 54.0938Z" fill="black"/>
<path fill-rule="evenodd" clip-rule="evenodd" d="M111.337 50.8918L120.424 50.8605C120.435 50.1993 120.248 49.5827 119.776 48.9036C119.649 48.71 119.237 48.2364 118.948 48.0144C118.714 47.797 118.271 47.526 118.048 47.4098C117.683 47.2028 117.177 47.0196 116.793 46.9273C116.681 46.9034 116.644 46.896 116.55 46.8796C116.346 46.8439 116.237 46.8424 116.081 46.8275C115.938 46.8185 115.658 46.823 115.439 46.8468C114.646 46.9287 113.742 47.2936 113.05 47.8179C112.891 47.9415 112.712 48.0904 112.573 48.2289C112.478 48.3257 112.31 48.4955 112.17 48.6772C111.96 48.9438 111.765 49.2535 111.684 49.4427C111.562 49.6706 111.4 50.1561 111.361 50.5165C111.345 50.6446 111.337 50.7682 111.337 50.8918ZM121.706 53.6872C121.57 54.064 121.466 54.3365 121.193 54.8116C120.992 55.1333 120.872 55.3195 120.647 55.5905C120.553 55.7141 120.453 55.8318 120.339 55.9539C120.281 56.0165 120.218 56.0805 120.103 56.1863C119.843 56.435 119.441 56.7701 119.076 56.9949C118.754 57.2005 118.365 57.3956 118.081 57.4998C117.75 57.6279 117.263 57.7843 116.776 57.8498C116.486 57.8885 116.234 57.9064 116.045 57.9094C115.527 57.9243 114.856 57.8453 114.243 57.6711C114.055 57.6115 113.903 57.5639 113.741 57.5043C113.224 57.3285 112.664 57.0381 112.195 56.7194C111.805 56.4484 111.428 56.1163 111.074 55.6963C110.582 55.0648 110.45 54.8101 110.186 54.2159C109.602 52.7728 109.593 51.2001 110.086 49.6676C110.247 49.2089 110.447 48.7353 110.731 48.2825C110.952 47.9176 111.194 47.5721 111.595 47.1566C112.115 46.6219 112.548 46.3286 113.081 46.0456C114.353 45.3858 115.828 45.2741 117.37 45.645C117.907 45.7805 118.651 46.0635 119.205 46.4313C119.789 46.8126 119.99 47.0047 120.418 47.4649C120.881 47.9787 121.153 48.4776 121.36 48.8931C121.861 49.9669 122.057 51.0452 122.063 52.2113L111.336 52.2515C111.3 52.9738 111.434 53.5234 111.934 54.3231C112.204 54.7252 112.299 54.8042 112.564 55.0812C112.67 55.1854 112.719 55.2271 112.825 55.3165C113.177 55.6069 113.325 55.6963 113.613 55.8675C113.787 55.9569 113.933 56.0343 114.087 56.1028C114.361 56.2265 114.734 56.3516 115.12 56.4245C115.884 56.5705 116.533 56.5556 117.36 56.286C117.786 56.1371 118.1 55.9643 118.368 55.7946C118.452 55.7454 118.642 55.6039 118.831 55.4505C119.009 55.3046 119.058 55.2525 119.171 55.1422C119.552 54.758 119.841 54.3753 119.98 53.9836C120.039 53.8212 120.148 53.7766 120.236 53.7498C120.364 53.6976 120.729 53.7036 121.009 53.6976C121.152 53.6887 121.424 53.6872 121.706 53.6872Z" fill="black"/>
<path fill-rule="evenodd" clip-rule="evenodd" d="M35.2369 57.884L35.2295 41.877L36.7113 41.8696L36.7426 47.4842C36.9466 47.2877 37.1551 47.0955 37.3324 46.9392C37.5096 46.7828 37.654 46.6651 37.7851 46.5639C38.0562 46.3539 38.2423 46.2273 38.3734 46.1558C38.4553 46.1066 38.5968 46.0456 38.6951 46.0024C38.7234 45.9949 38.8634 45.9443 38.981 45.9071C39.1151 45.8609 39.2342 45.8296 39.3772 45.8013C39.4963 45.7775 39.6035 45.7596 39.7004 45.7477C39.9431 45.7105 40.6029 45.7015 41.005 45.7328C41.1226 45.7388 41.4309 45.776 41.7094 45.8237C41.9239 45.8624 42.2128 45.9294 42.5911 46.0694C43.2628 46.333 43.9657 46.7321 44.6002 47.6927C44.7059 47.8536 44.9665 48.3063 45.0738 48.6236C45.1899 48.9214 45.2882 49.2252 45.3776 49.5633C45.5742 50.2573 45.6859 51.2849 45.7261 52.2917C45.7484 52.8174 45.7529 53.3104 45.7544 53.848C45.7544 54.3872 45.7499 54.971 45.735 55.6471C45.7186 56.3218 45.6918 57.0873 45.6561 57.8528H44.1668C44.2144 56.779 44.2502 55.7052 44.2651 54.9099C44.28 54.1146 44.2755 53.5978 44.2666 53.1406C44.2576 52.6834 44.2472 52.2843 44.2234 51.9104C44.1995 51.5366 44.1638 51.1866 44.1176 50.8769C44 50.1129 43.7781 49.3801 43.5234 48.8872C43.2687 48.3987 42.9396 47.9444 42.4481 47.6361C41.9447 47.2891 41.4116 47.176 40.9663 47.1253C40.439 47.0777 40.1099 47.0806 39.5157 47.1819C39.3697 47.2147 39.197 47.2534 39.0525 47.304C38.8351 47.377 38.1932 47.654 37.8298 48.0993C37.5245 48.4582 37.5289 48.491 37.383 48.7442C37.243 49.0182 37.2087 49.1016 37.1239 49.3533C36.9571 49.8463 36.7992 50.5626 36.7768 51.1405C36.762 51.8345 36.756 52.53 36.7679 53.4549C36.7798 54.3797 36.8096 55.5339 36.8096 56.3113C36.8096 57.0888 36.7813 57.4894 36.7277 57.8855H35.2369" fill="black"/>
<path fill-rule="evenodd" clip-rule="evenodd" d="M49.6027 47.3651C49.8827 47.0881 50.1731 46.82 50.3772 46.6443C50.8359 46.26 50.9506 46.2362 51.2514 46.0843C51.4316 45.9994 51.6744 45.9175 51.8024 45.8773C52.0943 45.782 52.4339 45.7135 52.6826 45.6867C52.9462 45.6584 53.533 45.6211 54.0751 45.6986C54.6544 45.773 55.1936 45.9622 55.6553 46.1811C56.2629 46.4507 57.0299 47.0389 57.5199 47.6793C57.7165 47.9489 57.8371 48.1827 57.9726 48.4806C58.0798 48.7204 58.1796 48.987 58.269 49.4248C58.3569 49.8627 58.4328 50.4733 58.4671 51.0839C58.4745 51.2045 58.4805 51.3237 58.4849 51.4979C58.4909 51.6707 58.4954 51.8985 58.5013 52.1919C58.5073 52.4868 58.5147 52.8487 58.5281 53.431C58.5415 54.0148 58.5594 54.8191 58.5654 55.3612C58.5713 55.9033 58.5654 56.1848 58.5579 56.4335C58.5505 56.6822 58.5415 56.8966 58.5326 57.0709C58.5162 57.336 58.5028 57.4953 58.479 57.6711C58.4715 57.7202 58.4656 57.7634 58.4581 57.8051L57.0492 57.7738C57.0537 56.7805 57.0537 55.7856 57.0492 55.0305C57.0373 53.5129 57.0373 52.9098 56.9971 51.9715C56.9748 51.5024 56.9361 50.9662 56.8824 50.5582C56.8288 50.1501 56.7588 49.8716 56.6829 49.6199C56.6069 49.3682 56.525 49.1433 56.4282 48.9259C56.2406 48.564 56.2584 48.5819 56.0216 48.2468C55.5763 47.6645 55.0953 47.4381 54.6783 47.2713C54.3566 47.1596 54.0289 47.1 53.8324 47.0851C53.53 47.0538 53.1815 47.0464 52.9164 47.0672C52.6573 47.0866 52.5218 47.103 52.3416 47.1343C52.1092 47.1789 51.8784 47.246 51.658 47.3428C51.168 47.5691 50.9416 47.7225 50.5574 48.1753C50.3355 48.4344 50.127 48.847 49.9765 49.258C49.8961 49.4784 49.8366 49.6854 49.78 49.9237C49.7234 50.1605 49.6683 50.4286 49.6295 50.9513C49.5908 51.4756 49.57 52.2545 49.564 53.0453C49.5521 54.6255 49.5759 56.2309 49.5878 57.8215L48.1224 57.8379L48.0747 45.9711L49.5715 46.0277L49.6027 47.3651Z" fill="black"/>
<path fill-rule="evenodd" clip-rule="evenodd" d="M33.42 54.4289C33.21 54.9829 32.863 55.5652 32.4474 56.0537C32.2821 56.2518 31.9083 56.6137 31.6373 56.8252C31.2486 57.1334 31.0445 57.2407 30.7333 57.4194C30.5501 57.5236 30.2671 57.6577 29.9469 57.7813C29.5135 57.9496 29.0414 58.0598 28.6304 58.1223C28.5276 58.1402 28.2744 58.167 28.0421 58.1849C27.6638 58.2162 27.4434 58.1938 27.1202 58.1789C26.8804 58.1655 26.7136 58.1402 26.5587 58.1194C26.3085 58.0896 25.6935 57.9674 25.2511 57.8036C24.779 57.6338 24.508 57.4953 24.1297 57.2779C23.5027 56.9622 22.42 55.9152 22.0313 55.1318C21.1332 53.4653 21.023 51.8926 21.4772 50.1963C21.5249 50.031 21.6321 49.7152 21.72 49.5097C21.7751 49.3757 21.9225 49.0659 22.0476 48.847C22.1683 48.6355 22.3783 48.3049 22.6597 47.9653C22.7714 47.8253 23.1557 47.4217 23.3582 47.2623C23.5712 47.0821 23.9882 46.7739 24.3367 46.5907C24.6792 46.3985 25.1454 46.2034 25.5773 46.0694C26.0509 45.9264 26.4232 45.8564 26.8238 45.8103C27.2096 45.7715 27.5223 45.7686 27.9617 45.7924C28.5201 45.8311 28.8121 45.9086 29.1993 45.9994C29.7518 46.1409 30.2105 46.3122 30.7869 46.6115C30.9224 46.6785 31.116 46.7962 31.2575 46.8841C31.6805 47.173 31.7832 47.2445 32.1868 47.5959C32.863 48.2349 33.2993 48.978 33.3574 49.6214C33.0387 49.6259 32.7215 49.6199 32.51 49.611C32.1734 49.5946 32.0677 49.5708 31.8755 49.5291C31.7296 49.4888 31.6477 49.4471 31.5256 49.2938C31.4139 49.121 31.2977 48.9497 31.2143 48.835C31.0281 48.5759 30.9343 48.5059 30.7824 48.3555C30.5799 48.1574 30.3669 47.9981 30.1629 47.8521C29.308 47.3368 28.7867 47.24 28.1359 47.1626C27.0562 47.0613 25.7724 47.3085 24.6763 48.0829C24.1401 48.4672 23.6159 49.0465 23.3299 49.5618C22.904 50.3005 22.6985 51.2313 22.7208 52.18C22.764 52.9574 22.8399 53.4057 23.2301 54.2159C23.3865 54.4989 23.5131 54.7103 23.7633 55.0201C24.1759 55.5056 24.5735 55.8318 25.1007 56.1282C25.3986 56.3009 25.613 56.3828 25.8766 56.4871C26.2236 56.6271 26.6824 56.7269 27.0383 56.7745C27.2781 56.8073 27.8693 56.849 28.2193 56.7939C28.5738 56.7581 28.8672 56.709 29.2767 56.5764C29.515 56.4975 29.7816 56.3799 30.0809 56.2101C30.3773 56.0388 30.626 55.8601 30.9358 55.5578C31.3037 55.1691 31.5285 54.828 31.7326 54.4274L33.42 54.4289Z" fill="black"/>
<path fill-rule="evenodd" clip-rule="evenodd" d="M124.589 54.1578C124.607 54.4497 124.667 54.7699 124.747 55.0082C124.854 55.3224 124.979 55.6486 125.37 56.006C125.938 56.5109 126.509 56.566 127.111 56.4886C127.282 56.4603 127.63 56.3545 127.843 56.2279C128.059 56.1237 128.457 55.7737 128.601 55.5116C128.737 55.2852 128.799 55.1169 128.847 54.8831C128.942 54.3559 128.968 53.6157 128.272 52.9664C128.189 52.8889 128.098 52.813 127.997 52.737C127.895 52.6596 127.785 52.5821 127.568 52.4689C127.35 52.3558 127.027 52.2068 126.699 52.0713C126.202 51.8673 125.709 51.6498 125.377 51.492C125.045 51.3326 124.875 51.2328 124.723 51.136C124.573 51.0392 124.44 50.9484 124.358 50.8888C124.19 50.7682 124.18 50.7488 124.086 50.6639C123.813 50.4241 123.59 50.0205 123.53 49.8701C123.423 49.602 123.401 49.4978 123.369 49.2848C123.34 49.0674 123.334 48.9021 123.35 48.6697C123.378 48.3034 123.444 47.9638 123.569 47.5736C123.734 47.1551 123.879 46.829 124.358 46.3509C124.393 46.3181 124.614 46.1096 124.716 46.053C124.845 45.9592 124.976 45.8728 125.066 45.8296C126.199 45.2309 127.414 45.1997 128.61 45.9726C129.356 46.5073 129.69 47.2266 129.845 47.7672C129.919 48.0323 129.982 48.3376 129.997 48.6325C129.549 48.628 129.1 48.6593 128.65 48.6221C128.53 48.5342 128.537 48.4955 128.446 48.3272C128.39 48.214 128.308 48.0398 128.25 47.9206C128.052 47.5349 128.043 47.4798 127.791 47.2132C127.407 46.8438 127.091 46.8066 126.725 46.7947C126.254 46.7962 125.746 46.9138 125.305 47.444C124.933 47.8819 124.778 48.5506 124.991 49.0942C125.067 49.2848 125.139 49.4352 125.317 49.6378C125.471 49.8046 125.535 49.8507 125.699 49.9699C125.919 50.1173 125.983 50.1397 126.186 50.229C126.308 50.2812 126.472 50.3437 126.638 50.4018C127.078 50.5463 127.516 50.6997 127.812 50.8113C128.108 50.923 128.266 50.9916 128.403 51.0571C128.825 51.2567 129.218 51.486 129.586 51.8762C129.75 52.0549 129.882 52.2396 129.994 52.4287C130.234 52.8308 130.581 53.8302 130.525 54.5123C130.52 55.0514 130.329 55.6769 130.016 56.1356C129.928 56.2771 129.843 56.3918 129.726 56.5228C129.069 57.1975 128.81 57.2853 128.26 57.54C127.495 57.8736 126.174 58.0196 125.192 57.5921C124.665 57.3792 124.133 57.0217 123.716 56.3873C123.215 55.595 123.091 54.8429 123.064 54.0819C123.299 54.067 123.535 54.058 123.702 54.0551C124.121 54.0536 124.276 54.0506 124.589 54.1578Z" fill="black"/>
<path fill-rule="evenodd" clip-rule="evenodd" d="M2.52883 46.1454L2.57798 41.9887H4.0509L4.07473 46.1379L6.89398 46.1305L6.90142 47.5245L4.08217 47.5394L4.06728 57.9957L2.58542 58.0032L2.54521 47.5394L0.0208442 47.5557L0.0133972 46.1543L2.52883 46.1454Z" fill="black"/>
<path fill-rule="evenodd" clip-rule="evenodd" d="M74.6245 57.7411L74.6171 41.7341L76.1064 41.7266V57.7411H74.6245Z" fill="black"/>
<path fill-rule="evenodd" clip-rule="evenodd" d="M106.415 57.1275L106.375 45.7716C106.877 45.7716 107.379 45.7239 107.881 45.8192L107.888 57.613L106.463 57.6368L106.415 57.1275Z" fill="black"/>
<path fill-rule="evenodd" clip-rule="evenodd" d="M106.367 44.3701L106.424 41.6149L107.857 41.6462L107.881 44.3463L106.367 44.3701Z" fill="black"/>
<path d="M135.247 53.3938H133.692V52.3007H138.115V53.3938H136.544V58.0568H135.245V53.3938H135.247Z" fill="black"/>
<path d="M143.64 55.8541C143.615 55.1631 143.588 54.3336 143.588 53.4891H143.572C143.384 54.2234 143.144 55.044 142.922 55.7186L142.222 57.9645H141.207L140.592 55.735C140.404 55.0603 140.216 54.2487 140.07 53.4891H140.054C140.029 54.2665 139.994 55.1542 139.96 55.872L139.849 58.0583H138.645L139.013 52.3022H140.747L141.311 54.2234C141.499 54.8891 141.67 55.6069 141.798 56.2816H141.832C141.986 55.6159 142.182 54.8563 142.379 54.2144L142.985 52.3022H144.693L145 58.0583H143.736L143.64 55.8541Z" fill="black"/>
<script xmlns=""/></svg>